<?xml version="1.0" ?><!DOCTYPE svg  PUBLIC '-//W3C//DTD SVG 1.1//EN'  'http://www.w3.org/Graphics/SVG/1.1/DTD/svg11.dtd'><!-- Uploaded to: SVG Repo, www.svgrepo.com, Generator: SVG Repo Mixer Tools -->
<svg fill="#000000" width="800px" height="800px" viewBox="0 0 32 32" style="fill-rule:evenodd;clip-rule:evenodd;stroke-linejoin:round;stroke-miterlimit:2;" version="1.1" xml:space="preserve" xmlns="http://www.w3.org/2000/svg" xmlns:serif="http://www.serif.com/" xmlns:xlink="http://www.w3.org/1999/xlink"><path d="M27.985,21.015l-0,-14c-0,-0.796 -0.316,-1.559 -0.879,-2.121c-0.562,-0.563 -1.325,-0.879 -2.121,-0.879c-3.463,0 -10.537,0 -14,0c-0.552,0 -1,0.448 -1,1c-0,0.552 0.448,1 1,1l14,0c0.265,0 0.519,0.105 0.707,0.293c0.188,0.188 0.293,0.442 0.293,0.707l-0,14c-0,0.552 0.448,1 1,1c0.552,0 1,-0.448 1,-1Z"/><path d="M24,11c0,-0.796 -0.316,-1.559 -0.879,-2.121c-0.562,-0.563 -1.325,-0.879 -2.121,-0.879c-3.463,0 -10.537,0 -14,0c-0.796,-0 -1.559,0.316 -2.121,0.879c-0.563,0.562 -0.879,1.325 -0.879,2.121c-0,3.463 -0,10.537 -0,14c-0,0.796 0.316,1.559 0.879,2.121c0.562,0.563 1.325,0.879 2.121,0.879c3.463,0 10.537,0 14,0c0.796,0 1.559,-0.316 2.121,-0.879c0.563,-0.562 0.879,-1.325 0.879,-2.121l-0,-14Zm-14.005,9.003l-0.002,0c-1.105,0 -2.002,0.897 -2.002,2.002c0,1.105 0.897,2.002 2.002,2.002c1.105,-0 2.002,-0.897 2.002,-2.002l-0,-7.122c-0,-0 6.001,-0.75 6.001,-0.75l0.002,3.867c-1.104,0 -2.001,0.897 -2.001,2.002c-0,1.105 0.897,2.001 2.001,2.001c1.105,0 2.002,-0.896 2.002,-2.001l-0.005,-7.003c-0,-0.286 -0.124,-0.559 -0.339,-0.749c-0.215,-0.19 -0.501,-0.278 -0.785,-0.242l-8,1c-0.501,0.062 -0.876,0.488 -0.876,0.992l-0,6.003Z"/></svg>